<svg width="29" height="37" viewBox="0 0 29 37" fill="none" xmlns="http://www.w3.org/2000/svg">
<path id="Vector" d="M25.375 20.2637V14.5C25.3724 11.9319 24.4611 9.4476 22.8024 7.48703C21.1437 5.52646 18.8447 4.21614 16.3125 3.78812V1.8125C16.3125 1.33179 16.1215 0.870779 15.7816 0.530869C15.4417 0.190959 14.9807 0 14.5 0C14.0193 0 13.5583 0.190959 13.2184 0.530869C12.8785 0.870779 12.6875 1.33179 12.6875 1.8125V3.78812C10.1553 4.21614 7.85633 5.52646 6.19764 7.48703C4.53895 9.4476 3.6276 11.9319 3.625 14.5V20.2637C2.56732 20.6377 1.65118 21.3296 1.0022 22.2447C0.353217 23.1598 0.00315286 24.2532 0 25.375V29C0 29.4807 0.19096 29.9417 0.530869 30.2816C0.870779 30.6215 1.3318 30.8125 1.8125 30.8125H7.50375C7.92114 32.3484 8.83232 33.7042 10.0967 34.6708C11.3611 35.6375 12.9084 36.1612 14.5 36.1612C16.0916 36.1612 17.6389 35.6375 18.9033 34.6708C20.1677 33.7042 21.0789 32.3484 21.4963 30.8125H27.1875C27.6682 30.8125 28.1292 30.6215 28.4691 30.2816C28.809 29.9417 29 29.4807 29 29V25.375C28.9968 24.2532 28.6468 23.1598 27.9978 22.2447C27.3488 21.3296 26.4327 20.6377 25.375 20.2637ZM7.25 14.5C7.25 12.5772 8.01384 10.7331 9.37348 9.37348C10.7331 8.01384 12.5772 7.25 14.5 7.25C16.4228 7.25 18.2669 8.01384 19.6265 9.37348C20.9862 10.7331 21.75 12.5772 21.75 14.5V19.9375H7.25V14.5ZM14.5 32.625C13.8674 32.6212 13.2468 32.4519 12.6999 32.1339C12.153 31.8159 11.6988 31.3604 11.3825 30.8125H17.6175C17.3012 31.3604 16.847 31.8159 16.3001 32.1339C15.7532 32.4519 15.1326 32.6212 14.5 32.625ZM25.375 27.1875H3.625V25.375C3.625 24.8943 3.81596 24.4333 4.15587 24.0934C4.49578 23.7535 4.9568 23.5625 5.4375 23.5625H23.5625C24.0432 23.5625 24.5042 23.7535 24.8441 24.0934C25.184 24.4333 25.375 24.8943 25.375 25.375V27.1875Z" fill="#2B5B7C"/>
</svg>
